<svg xmlns="http://www.w3.org/2000/svg" xml:space="preserve" id="architecture" x="0" y="0" style="enable-background:new 0 0 64 64" version="1.1" viewBox="0 0 64 64">
  <g>
    <path d="m61.49 40.13-.7-1.65-5.15-12.26c.11-.38.19-.79.19-1.21 0-1.37-.63-2.65-1.68-3.49v-1.23c0-.56-.44-1.01-.98-1.07V16.8c0-.99-.82-1.81-1.81-1.81-1 0-1.81.82-1.81 1.81v2.41c-.57.04-1.01.5-1.01 1.07v1.29c-1.03.86-1.62 2.09-1.62 3.43 0 .42.07.84.19 1.24l-5.14 12.23-.69 1.65c-.11.26.01.54.26.65.07.02.13.04.2.04.19 0 .37-.12.45-.31l.61-1.47 2.35-.96c.89-.36 1.6-1.04 1.98-1.91l3.08-6.88c.37.11.78.17 1.18.17.41 0 .81-.07 1.18-.18l3.08 6.89c.39.87 1.09 1.55 1.98 1.91l2.35.96.61 1.47c.08.19.27.31.46.31.06 0 .13-.02.19-.04C61.47 40.67 61.59 40.38 61.49 40.13zM50.52 16.8c0-.45.36-.83.83-.83.45 0 .83.37.83.83v2.39h-1.65V16.8zM49.51 20.29c0-.06.05-.11.11-.11h3.43c.06 0 .12.05.12.11v3.43c-.07 0-.14.01-.2.04-.05.02-.08.05-.12.08h-3.03c-.02-.01-.04-.03-.06-.04-.08-.03-.16-.04-.24-.03 0-.01-.01-.03-.01-.04V20.29zM52.83 25c0 .81-.66 1.47-1.47 1.47s-1.46-.66-1.46-1.47c0-.06.01-.13.02-.19h2.88C52.81 24.88 52.83 24.95 52.83 25zM46.21 35.78c-.29.64-.81 1.13-1.46 1.4l-1.44.59 4.32-10.31c.41.62.97 1.13 1.62 1.49L46.21 35.78zM51.37 28.48c-1.5 0-2.83-.95-3.31-2.36 0-.01 0-.02-.01-.03-.11-.34-.17-.71-.17-1.08 0-.72.24-1.4.64-1.97v.69c0 .35.18.66.44.86-.03.14-.04.29-.04.42 0 1.35 1.09 2.45 2.44 2.45s2.45-1.1 2.45-2.45c0-.16-.02-.32-.05-.47.23-.21.37-.48.37-.81v-.79c.43.59.7 1.31.7 2.07C54.84 26.92 53.29 28.48 51.37 28.48zM57.98 37.17c-.65-.27-1.17-.76-1.46-1.4l-3.06-6.85c.66-.35 1.22-.86 1.63-1.48l4.32 10.32L57.98 37.17zM38.82 24.49H13.44c-.28 0-.49.22-.49.49v7.39h-1.54c-.28 0-.49.22-.49.49s.22.49.49.49h4.06c.27 0 .49-.22.49-.49s-.23-.49-.49-.49h-1.54v-6.9h6.81v24.21h-6.81v-7.04h1.54c.27 0 .49-.22.49-.49 0-.27-.23-.49-.49-.49h-4.06c-.28 0-.49.23-.49.49 0 .28.22.49.49.49h1.54v7.53c0 .28.22.49.49.49h25.38c.28 0 .49-.22.49-.49v-25.2C39.32 24.71 39.1 24.49 38.82 24.49zM38.33 49.69h-9.07v-8.25h9.07V49.69zM38.33 32.38h-4.19c-.28 0-.49.22-.49.49s.22.49.49.49h4.19v7.09h-9.56c-.28 0-.49.22-.49.49v8.74h-6.55V33.36h7.67c.27 0 .49-.22.49-.49s-.23-.49-.49-.49h-7.67v-6.9h16.6V32.38z"></path>
    <path d="M60.43,2.46h-3.4c-0.27,0-0.49,0.23-0.49,0.49v5.66H3.63c-2,0-3.63,1.62-3.63,3.62v42.39c0,1.82,0.74,3.6,2.03,4.88
		c1.31,1.32,3.05,2.04,4.89,2.04c0.28,0,0.49-0.22,0.49-0.49V54.7h52.57c2.22,0,4.02-1.79,4.02-4.01V6.02
		C64,4.05,62.4,2.46,60.43,2.46z M6.43,60.54c-1.4-0.11-2.7-0.72-3.71-1.72c-1.09-1.1-1.73-2.63-1.73-4.19V14.73
		c0.03,0.02,0.05,0.05,0.08,0.07c0.68,0.69,1.6,1.06,2.57,1.06h2.8V60.54z M63.02,50.69c0,1.66-1.36,3.02-3.03,3.02H7.41V15.37
		c0-0.28-0.22-0.49-0.49-0.49H3.63c-0.72,0-1.38-0.28-1.87-0.77c-0.5-0.5-0.78-1.16-0.78-1.88c0-1.45,1.19-2.64,2.65-2.64h56.79
		c1.02,0,1.94-0.43,2.59-1.12V50.69z M63.02,6.03v0.03C63,7.47,61.84,8.61,60.43,8.61h-2.9V3.44h2.9c1.43,0,2.59,1.15,2.59,2.57
		C63.02,6.02,63.02,6.02,63.02,6.03z"></path>
    <path d="M63.02,6.01c0,0.01,0,0.01,0,0.02v0.03C63,7.47,61.84,8.61,60.43,8.61h-2.9V3.44h2.9
		C61.85,3.44,63.02,4.59,63.02,6.01z" style="fill:#75cef8"></path>
    <path d="M60.43,9.6H3.63c-1.46,0-2.65,1.19-2.65,2.64c0,0.72,0.28,1.38,0.78,1.88c0.49,0.49,1.15,0.77,1.87,0.77h3.29
		c0.28,0,0.49,0.22,0.49,0.49v38.34h52.57c1.67,0,3.03-1.36,3.03-3.02V8.47C62.37,9.16,61.45,9.6,60.43,9.6z M13.71,13.14
		c0-0.28,0.23-0.49,0.49-0.49h27.51c0.27,0,0.49,0.22,0.49,0.49v7c0,0.27-0.23,0.49-0.49,0.49H14.2c-0.27,0-0.49-0.23-0.49-0.49
		V13.14z M39.32,50.18c0,0.28-0.22,0.49-0.49,0.49H13.44c-0.28,0-0.49-0.22-0.49-0.49v-7.53h-1.54c-0.28,0-0.49-0.22-0.49-0.49
		c0-0.27,0.22-0.49,0.49-0.49h4.06c0.27,0,0.49,0.23,0.49,0.49c0,0.28-0.23,0.49-0.49,0.49h-1.54v7.04h6.81V25.48h-6.81v6.9h1.54
		c0.27,0,0.49,0.22,0.49,0.49s-0.23,0.49-0.49,0.49h-4.06c-0.28,0-0.49-0.22-0.49-0.49s0.22-0.49,0.49-0.49h1.54v-7.39
		c0-0.28,0.22-0.49,0.49-0.49h25.38c0.28,0,0.49,0.22,0.49,0.49V50.18z M61.22,40.78c-0.06,0.02-0.13,0.04-0.19,0.04
		c-0.2,0-0.38-0.12-0.46-0.31l-0.61-1.47l-2.35-0.96c-0.89-0.36-1.59-1.04-1.98-1.91l-3.08-6.89c-0.37,0.11-0.77,0.18-1.18,0.18
		c-0.4,0-0.81-0.06-1.18-0.17l-3.08,6.88c-0.38,0.87-1.09,1.55-1.98,1.91l-2.35,0.96l-0.61,1.47c-0.08,0.19-0.27,0.31-0.45,0.31
		c-0.07,0-0.13-0.02-0.2-0.04c-0.25-0.11-0.36-0.39-0.26-0.65l0.69-1.65l5.14-12.23c-0.12-0.4-0.19-0.82-0.19-1.24
		c0-1.34,0.59-2.57,1.62-3.43v-1.29c0-0.57,0.44-1.03,1.01-1.07V16.8c0-0.99,0.81-1.81,1.81-1.81c0.99,0,1.81,0.82,1.81,1.81v2.41
		c0.54,0.06,0.98,0.51,0.98,1.07v1.23c1.05,0.84,1.68,2.12,1.68,3.49c0,0.42-0.08,0.83-0.19,1.21l5.15,12.26l0.7,1.65
		C61.59,40.38,61.47,40.67,61.22,40.78z" style="fill:#f9f3f1"></path>
    <path d="M52.17,16.8v2.39h-1.65V16.8c0-0.45,0.36-0.83,0.83-0.83C51.8,15.98,52.17,16.35,52.17,16.8z" style="fill:#818181"></path>
    <path d="M53.16,20.29v3.43c-0.07,0-0.14,0.01-0.2,0.04c-0.05,0.02-0.08,0.05-0.12,0.08h-3.03
		c-0.02-0.01-0.04-0.03-0.06-0.04c-0.08-0.03-0.16-0.04-0.24-0.03c0-0.01-0.01-0.03-0.01-0.04v-3.44c0-0.06,0.05-0.11,0.11-0.11
		h3.43C53.1,20.18,53.16,20.23,53.16,20.29z" style="fill:#3fd5f1"></path>
    <path d="M52.83,25c0,0.81-0.66,1.47-1.47,1.47s-1.46-0.66-1.46-1.47c0-0.06,0.01-0.13,0.02-0.19h2.88
		C52.81,24.88,52.83,24.95,52.83,25z" style="fill:#818181"></path>
    <path d="M54.84,25c0,1.92-1.56,3.48-3.48,3.48c-1.5,0-2.83-0.95-3.31-2.36c0-0.01,0-0.02-0.01-0.03
		c-0.11-0.34-0.17-0.71-0.17-1.08c0-0.72,0.24-1.4,0.64-1.97v0.69c0,0.35,0.18,0.66,0.44,0.86c-0.03,0.14-0.04,0.29-0.04,0.42
		c0,1.35,1.09,2.45,2.44,2.45s2.45-1.1,2.45-2.45c0-0.16-0.02-0.32-0.05-0.47c0.23-0.21,0.37-0.48,0.37-0.81v-0.79
		C54.58,23.53,54.84,24.25,54.84,25z" style="fill:#f69625"></path>
    <path d="m59.42 37.76-1.44-.59c-.65-.27-1.17-.76-1.46-1.4l-3.06-6.85c.66-.35 1.22-.86 1.63-1.48L59.42 37.76zM49.26 28.94l-3.05 6.83c-.29.64-.81 1.13-1.46 1.4l-1.44.59 4.32-10.31C48.05 28.08 48.61 28.59 49.26 28.94z" style="fill:#3fd5f1"></path>
    <rect width="9.07" height="8.25" x="29.26" y="41.44" style="fill:#f9f3f1"></rect>
    <path d="M33.64,32.87c0,0.28,0.22,0.49,0.49,0.49h4.19v7.09h-9.56c-0.28,0-0.49,0.22-0.49,0.49v8.74h-6.55V33.36h7.67
		c0.27,0,0.49-0.22,0.49-0.49s-0.23-0.49-0.49-0.49h-7.67v-6.9h16.6v6.9h-4.19C33.86,32.38,33.64,32.6,33.64,32.87z" style="fill:#f9f3f1"></path>
    <path d="M6.43,15.87v44.67c-1.4-0.11-2.7-0.72-3.71-1.72c-1.09-1.1-1.73-2.63-1.73-4.19V14.73
		c0.03,0.02,0.05,0.05,0.08,0.07c0.68,0.69,1.6,1.06,2.57,1.06H6.43z" style="fill:#75cef8"></path>
    <path d="M41.71,12.65H14.2c-0.27,0-0.49,0.22-0.49,0.49v7c0,0.27,0.23,0.49,0.49,0.49h27.51c0.27,0,0.49-0.23,0.49-0.49v-7
		C42.2,12.86,41.97,12.65,41.71,12.65z M41.22,19.65H14.69v-6.02h2.42v3.55c0,0.28,0.23,0.49,0.49,0.49c0.28,0,0.49-0.22,0.49-0.49
		v-3.55h2.54v2.33c0,0.28,0.22,0.49,0.49,0.49c0.27,0,0.49-0.22,0.49-0.49v-2.33h2.53v3.55c0,0.28,0.22,0.49,0.49,0.49
		c0.28,0,0.49-0.22,0.49-0.49v-3.55h2.53v2.33c0,0.28,0.23,0.49,0.49,0.49c0.28,0,0.49-0.22,0.49-0.49v-2.33h2.54v3.55
		c0,0.28,0.22,0.49,0.49,0.49c0.27,0,0.49-0.22,0.49-0.49v-3.55h2.53v2.33c0,0.28,0.23,0.49,0.49,0.49c0.28,0,0.49-0.22,0.49-0.49
		v-2.33h2.54v3.55c0,0.28,0.22,0.49,0.49,0.49c0.27,0,0.49-0.22,0.49-0.49v-3.55h2V19.65z"></path>
    <path d="M41.22,13.63v6.02H14.69v-6.02h2.42v3.55c0,0.28,0.23,0.49,0.49,0.49c0.28,0,0.49-0.22,0.49-0.49v-3.55h2.54
		v2.33c0,0.28,0.22,0.49,0.49,0.49c0.27,0,0.49-0.22,0.49-0.49v-2.33h2.53v3.55c0,0.28,0.22,0.49,0.49,0.49
		c0.28,0,0.49-0.22,0.49-0.49v-3.55h2.53v2.33c0,0.28,0.23,0.49,0.49,0.49c0.28,0,0.49-0.22,0.49-0.49v-2.33h2.54v3.55
		c0,0.28,0.22,0.49,0.49,0.49c0.27,0,0.49-0.22,0.49-0.49v-3.55h2.53v2.33c0,0.28,0.23,0.49,0.49,0.49c0.28,0,0.49-0.22,0.49-0.49
		v-2.33h2.54v3.55c0,0.28,0.22,0.49,0.49,0.49c0.27,0,0.49-0.22,0.49-0.49v-3.55H41.22z" style="fill:#ffd86e"></path>
  </g>
</svg>
