<svg xmlns="http://www.w3.org/2000/svg" viewBox="0 0 66 66" id="construction">
  <path fill="#fff" d="M60.44 28.47v35.08H36.56V37.54h10.25V26.39h11.54c1.15 0 2.09.93 2.09 2.08z"></path>
  <path fill="#241c70" d="M60.44 64.05H36.56c-.28 0-.5-.22-.5-.5V37.54c0-.28.22-.5.5-.5h9.75V26.39c0-.28.22-.5.5-.5h11.54c1.42 0 2.58 1.16 2.58 2.58v35.08c.01.28-.22.5-.49.5zm-23.38-1h22.87V28.47c0-.87-.71-1.58-1.58-1.58H47.31v10.65c0 .28-.22.5-.5.5h-9.75v25.01z"></path>
  <path fill="#638df9" d="M44.1 51.72h8.79v11.83H44.1zM50.43 30.66h6.12v5.79h-6.12zM40.46 40.92h6.12v5.79h-6.12zM50.43 40.92h6.12v5.79h-6.12z"></path>
  <path d="M52.9 51.72v11.83h-8.79v-2.14h6.58v-9.69zM56.55 30.66v5.79h-6.12v-2.13h3.9v-3.66z" opacity=".08"></path>
  <g opacity=".08">
    <path d="M46.58 40.92v5.79h-6.12v-2.14h3.9v-3.65zM56.55 40.92v5.79h-6.12v-2.14h3.9v-3.65z"></path>
  </g>
  <path fill="#241c70" d="M52.9 64.05h-8.8c-.28 0-.5-.22-.5-.5V51.72c0-.28.22-.5.5-.5h8.79c.28 0 .5.22.5.5v11.83c.01.28-.21.5-.49.5zm-8.3-1h7.79V52.22H44.6v10.83zm11.94-26.1h-6.12c-.28 0-.5-.22-.5-.5v-5.79c0-.28.22-.5.5-.5h6.12c.28 0 .5.22.5.5v5.79c0 .28-.22.5-.5.5zm-5.61-1h5.12v-4.79h-5.12v4.79zm-4.35 11.26h-6.12c-.28 0-.5-.22-.5-.5v-5.79c0-.28.22-.5.5-.5h6.12c.28 0 .5.22.5.5v5.79c0 .28-.23.5-.5.5zm-5.62-1h5.12v-4.79h-5.12v4.79zm15.58 1h-6.12c-.28 0-.5-.22-.5-.5v-5.79c0-.28.22-.5.5-.5h6.12c.28 0 .5.22.5.5v5.79c0 .28-.22.5-.5.5zm-5.61-1h5.12v-4.79h-5.12v4.79z"></path>
  <path fill="#638df9" d="M32.39 28.99h5.47v5.18h-5.47z"></path>
  <path fill="#241c70" d="M37.86 34.67h-5.47c-.28 0-.5-.22-.5-.5v-5.18c0-.28.22-.5.5-.5h5.47c.28 0 .5.22.5.5v5.18c0 .27-.22.5-.5.5zm-4.97-1h4.47v-4.18h-4.47v4.18z"></path>
  <path fill="#241c70" d="M37.86 29.49h-5.47a.52.52 0 0 1-.43-.24.503.503 0 0 1-.02-.49l2.73-5.4c.17-.34.72-.34.89 0l2.73 5.4c.08.15.07.34-.02.49-.08.15-.24.24-.41.24zm-4.65-1h3.84l-1.92-3.79-1.92 3.79z"></path>
  <path fill="#fff" d="M13.17 2.45h8.06v55.57h-8.06z"></path>
  <path fill="#241c70" d="M21.23 58.52h-8.06c-.28 0-.5-.22-.5-.5V2.45c0-.28.22-.5.5-.5h8.06c.28 0 .5.22.5.5v55.57c0 .28-.22.5-.5.5zm-7.56-1h7.06V2.95h-7.06v54.57z"></path>
  <path fill="#fff" d="M2.96 11.23h42.5v5.84H2.96z"></path>
  <path fill="#241c70" d="M45.46 17.57H2.96c-.28 0-.5-.22-.5-.5v-5.84c0-.28.22-.5.5-.5h42.5c.28 0 .5.22.5.5v5.84c0 .28-.23.5-.5.5zm-42-1h41.5v-4.84H3.46v4.84z"></path>
  <path fill="#f8c257" d="M20.88 7.23h-9.27c-.86 0-1.56.7-1.56 1.56v9.68c0 .86.7 1.56 1.56 1.56h11.17c.86 0 1.56-.7 1.56-1.56v-7.63c0-.4-.15-.78-.42-1.07l-1.91-2.04c-.28-.32-.69-.5-1.13-.5z"></path>
  <path d="M24.36 18.22v.25c0 .86-.7 1.56-1.57 1.56H11.62c-.86 0-1.56-.7-1.56-1.56V8.79c0-.86.7-1.56 1.56-1.56h.76v9.43c0 .86.7 1.56 1.56 1.56h10.42z" opacity=".08"></path>
  <path fill="#241c70" d="M22.79 20.53H11.62c-1.14 0-2.06-.92-2.06-2.06V8.79c0-1.14.92-2.06 2.06-2.06h9.27c.57 0 1.12.24 1.51.65l1.91 2.04c.36.38.56.88.56 1.41v7.63c-.02 1.14-.94 2.07-2.08 2.07zM11.62 7.73c-.58 0-1.06.48-1.06 1.06v9.67c0 .59.48 1.06 1.06 1.06h11.17c.59 0 1.06-.48 1.06-1.06v-7.63c0-.27-.1-.53-.29-.72l-1.91-2.04c-.2-.21-.48-.34-.78-.34h-9.25z"></path>
  <path fill="#fff" d="M37.49 17.07v1.99c0 .32-.26.59-.59.59h-4.69c-.32 0-.59-.26-.59-.59v-1.99h5.87z"></path>
  <path fill="#241c70" d="M36.9 20.15h-4.69c-.6 0-1.09-.49-1.09-1.09v-1.99c0-.28.22-.5.5-.5h5.87c.28 0 .5.22.5.5v1.99c0 .61-.49 1.09-1.09 1.09zm-4.78-2.58v1.49c0 .05.04.09.09.09h4.69c.05 0 .09-.04.09-.09v-1.49h-4.87z"></path>
  <path fill="#241c70" d="M34.55 22.45c-.28 0-.5-.22-.5-.5v-2.3c0-.28.22-.5.5-.5s.5.22.5.5v2.3c0 .28-.22.5-.5.5z"></path>
  <path fill="#241c70" d="M34.55 25.73c-1.18 0-2.14-.96-2.14-2.14 0-1.18.96-2.14 2.14-2.14.28 0 .5.22.5.5s-.22.5-.5.5a1.14 1.14 0 1 0 1.14 1.14c0-.28.22-.5.5-.5s.5.22.5.5c0 1.18-.96 2.14-2.14 2.14zm-5.14 38.32H4.55c-.28 0-.5-.22-.5-.5s.22-.5.5-.5h24.86c.28 0 .5.22.5.5s-.23.5-.5.5zm33.63 0h-28.4c-.28 0-.5-.22-.5-.5s.22-.5.5-.5h28.4c.28 0 .5.22.5.5s-.22.5-.5.5z"></path>
  <path fill="#fff" d="M19.44 13.63c0 1.24-1.01 2.24-2.24 2.24-1.24 0-2.24-1-2.24-2.24 0-1.24 1-2.24 2.24-2.24 1.23 0 2.24 1 2.24 2.24zM13.17 20.03l8.06 7.6"></path>
  <path fill="#241c70" d="M21.23 28.13c-.12 0-.25-.04-.34-.14l-8.06-7.6a.504.504 0 0 1-.02-.71c.19-.2.51-.21.71-.02l8.06 7.6a.504.504 0 0 1-.35.87z"></path>
  <path fill="#fff" d="m21.23 20.03-8.06 7.6"></path>
  <path fill="#241c70" d="M13.17 28.13c-.13 0-.27-.05-.36-.16-.19-.2-.18-.52.02-.71l8.06-7.6c.2-.19.52-.18.71.02.19.2.18.52-.02.71l-8.06 7.6c-.1.09-.22.14-.35.14z"></path>
  <path fill="#fff" d="m13.17 27.63 8.06 7.6"></path>
  <path fill="#241c70" d="M21.23 35.73c-.12 0-.25-.04-.34-.14l-8.06-7.6c-.2-.19-.21-.51-.02-.71s.51-.21.71-.02l8.06 7.6a.504.504 0 0 1-.35.87z"></path>
  <path fill="#fff" d="m21.23 27.63-8.06 7.6"></path>
  <path fill="#241c70" d="M13.17 35.73c-.13 0-.27-.05-.36-.16-.19-.2-.18-.52.02-.71l8.06-7.6c.2-.19.52-.18.71.02.19.2.18.52-.02.71l-8.06 7.6c-.1.09-.22.14-.35.14z"></path>
  <path fill="#fff" d="m13.17 35.23 8.06 7.6"></path>
  <path fill="#241c70" d="M21.23 43.33c-.12 0-.25-.04-.34-.14l-8.06-7.6c-.2-.19-.21-.51-.02-.71s.51-.21.71-.02l8.06 7.6a.504.504 0 0 1-.35.87z"></path>
  <path fill="#fff" d="m21.23 35.23-8.06 7.6"></path>
  <path fill="#241c70" d="M13.17 43.33c-.13 0-.27-.05-.36-.16-.19-.2-.18-.52.02-.71l8.06-7.6c.2-.19.52-.18.71.02.19.2.18.52-.02.71l-8.06 7.6c-.1.09-.22.14-.35.14z"></path>
  <path fill="#fff" d="m13.17 42.83 8.06 7.59"></path>
  <path fill="#241c70" d="M21.23 50.92c-.12 0-.25-.04-.34-.14l-8.06-7.6a.504.504 0 0 1-.02-.71c.19-.2.51-.21.71-.02l8.06 7.6a.504.504 0 0 1-.35.87z"></path>
  <path fill="#fff" d="m21.23 42.83-8.06 7.59"></path>
  <path fill="#241c70" d="M13.17 50.92c-.13 0-.27-.05-.36-.16-.19-.2-.18-.52.02-.71l8.06-7.6c.2-.19.52-.18.71.02.19.2.18.52-.02.71l-8.06 7.6c-.1.1-.22.14-.35.14z"></path>
  <path fill="#fff" d="m13.17 50.42 8.06 7.6"></path>
  <path fill="#241c70" d="M21.23 58.52c-.12 0-.25-.04-.34-.14l-8.06-7.6c-.2-.19-.21-.51-.02-.71s.51-.21.71-.02l8.06 7.6a.504.504 0 0 1-.35.87z"></path>
  <path fill="#fff" d="m21.23 50.42-8.06 7.6"></path>
  <path fill="#241c70" d="M13.17 58.52c-.13 0-.27-.05-.36-.16-.19-.2-.18-.52.02-.71l8.06-7.6c.2-.19.52-.18.71.02.19.2.18.52-.02.71l-8.06 7.6c-.1.1-.22.14-.35.14z"></path>
  <path fill="#f8c257" d="M25.57 63.55v-3.56c0-1.09-.88-1.97-1.97-1.97H10.8c-1.09 0-1.97.88-1.97 1.97v3.56h16.74z"></path>
  <path d="M25.57 59.99v3.56H8.84v-2.24h14.44v-3.29h.33c1.08 0 1.96.88 1.96 1.97z" opacity=".08"></path>
  <path fill="#241c70" d="M25.57 64.05H8.84c-.28 0-.5-.22-.5-.5v-3.56c0-1.36 1.11-2.47 2.47-2.47h12.8c1.36 0 2.47 1.11 2.47 2.47v3.56a.51.51 0 0 1-.51.5zm-16.23-1h15.73v-3.06c0-.81-.66-1.47-1.47-1.47H10.8c-.81 0-1.47.66-1.47 1.47v3.06z"></path>
  <path fill="#f8c257" d="m2.96 11.23 7.09 5.84"></path>
  <path fill="#241c70" d="M10.05 17.57c-.11 0-.22-.04-.32-.11l-7.1-5.84a.503.503 0 0 1-.07-.7c.18-.21.49-.24.7-.07l7.1 5.84c.21.17.24.49.07.7-.09.12-.23.18-.38.18z"></path>
  <path fill="#f8c257" d="m10.05 11.23-7.09 5.84"></path>
  <path fill="#241c70" d="M2.96 17.57c-.14 0-.29-.06-.39-.18a.486.486 0 0 1 .07-.7l7.1-5.84c.21-.18.53-.15.7.07.18.21.15.53-.07.7l-7.1 5.84c-.09.08-.2.11-.31.11z"></path>
  <path fill="#f8c257" d="m24.35 11.23 7.1 5.84"></path>
  <path fill="#241c70" d="M31.45 17.57c-.11 0-.22-.04-.32-.11l-7.1-5.84a.503.503 0 0 1-.07-.7c.18-.21.49-.24.7-.07l7.1 5.84c.21.17.24.49.07.7-.09.12-.24.18-.38.18z"></path>
  <path fill="#f8c257" d="m31.45 11.23-7.1 5.84"></path>
  <path fill="#241c70" d="M24.35 17.57c-.14 0-.29-.06-.39-.18a.486.486 0 0 1 .07-.7l7.1-5.84c.21-.18.53-.15.7.07.18.21.15.53-.07.7l-7.1 5.84c-.08.08-.2.11-.31.11z"></path>
  <path fill="#f8c257" d="m31 11.23 7.1 5.84"></path>
  <path fill="#241c70" d="M38.1 17.57c-.11 0-.22-.04-.32-.11l-7.1-5.84a.503.503 0 0 1-.07-.7c.18-.21.49-.24.7-.07l7.1 5.84c.21.17.24.49.07.7-.09.12-.24.18-.38.18z"></path>
  <path fill="#f8c257" d="M38.1 11.23 31 17.07"></path>
  <path fill="#241c70" d="M31 17.57c-.14 0-.29-.06-.39-.18a.486.486 0 0 1 .07-.7l7.1-5.84c.21-.18.53-.15.7.07.18.21.15.53-.07.7l-7.1 5.84c-.08.08-.2.11-.31.11z"></path>
  <path fill="#f8c257" d="m37.65 11.23 7.1 5.84"></path>
  <path fill="#241c70" d="M44.75 17.57c-.11 0-.22-.04-.32-.11l-7.1-5.84a.503.503 0 0 1-.07-.7c.18-.21.49-.24.7-.07l7.1 5.84c.21.17.24.49.07.7-.09.12-.23.18-.38.18z"></path>
  <path fill="#f8c257" d="m44.75 11.23-7.1 5.84"></path>
  <path fill="#241c70" d="M37.65 17.57c-.14 0-.29-.06-.39-.18a.486.486 0 0 1 .07-.7l7.1-5.84c.21-.18.53-.15.7.07.18.21.15.53-.07.7l-7.1 5.84c-.08.08-.19.11-.31.11z"></path>
  <path fill="#fff" d="M60.44 28.47v35.08H36.56V37.54h10.25V26.39h11.54c1.15 0 2.09.93 2.09 2.08z"></path>
  <path fill="#241c70" d="M60.44 64.05H36.56c-.28 0-.5-.22-.5-.5V37.54c0-.28.22-.5.5-.5h9.75V26.39c0-.28.22-.5.5-.5h11.54c1.42 0 2.58 1.16 2.58 2.58v35.08c.01.28-.22.5-.49.5zm-23.38-1h22.87V28.47c0-.87-.71-1.58-1.58-1.58H47.31v10.65c0 .28-.22.5-.5.5h-9.75v25.01z"></path>
  <path fill="#638df9" d="M44.1 51.72h8.79v11.83H44.1zM50.43 30.66h6.12v5.79h-6.12zM40.46 40.92h6.12v5.79h-6.12zM50.43 40.92h6.12v5.79h-6.12z"></path>
  <path d="M52.9 51.72v11.83h-8.79v-2.14h6.58v-9.69zM56.55 30.66v5.79h-6.12v-2.13h3.9v-3.66z" opacity=".08"></path>
  <g opacity=".08">
    <path d="M46.58 40.92v5.79h-6.12v-2.14h3.9v-3.65zM56.55 40.92v5.79h-6.12v-2.14h3.9v-3.65z"></path>
  </g>
  <path fill="#241c70" d="M52.9 64.05h-8.8c-.28 0-.5-.22-.5-.5V51.72c0-.28.22-.5.5-.5h8.79c.28 0 .5.22.5.5v11.83c.01.28-.21.5-.49.5zm-8.3-1h7.79V52.22H44.6v10.83zm11.94-26.1h-6.12c-.28 0-.5-.22-.5-.5v-5.79c0-.28.22-.5.5-.5h6.12c.28 0 .5.22.5.5v5.79c0 .28-.22.5-.5.5zm-5.61-1h5.12v-4.79h-5.12v4.79zm-4.35 11.26h-6.12c-.28 0-.5-.22-.5-.5v-5.79c0-.28.22-.5.5-.5h6.12c.28 0 .5.22.5.5v5.79c0 .28-.23.5-.5.5zm-5.62-1h5.12v-4.79h-5.12v4.79zm15.58 1h-6.12c-.28 0-.5-.22-.5-.5v-5.79c0-.28.22-.5.5-.5h6.12c.28 0 .5.22.5.5v5.79c0 .28-.22.5-.5.5zm-5.61-1h5.12v-4.79h-5.12v4.79z"></path>
  <path fill="#638df9" d="M32.39 28.99h5.47v5.18h-5.47z"></path>
  <path fill="#241c70" d="M37.86 34.67h-5.47c-.28 0-.5-.22-.5-.5v-5.18c0-.28.22-.5.5-.5h5.47c.28 0 .5.22.5.5v5.18c0 .27-.22.5-.5.5zm-4.97-1h4.47v-4.18h-4.47v4.18z"></path>
  <path fill="#241c70" d="M37.86 29.49h-5.47a.52.52 0 0 1-.43-.24.503.503 0 0 1-.02-.49l2.73-5.4c.17-.34.72-.34.89 0l2.73 5.4c.08.15.07.34-.02.49-.08.15-.24.24-.41.24zm-4.65-1h3.84l-1.92-3.79-1.92 3.79z"></path>
  <path fill="#fff" d="M13.17 2.45h8.06v55.57h-8.06z"></path>
  <path fill="#241c70" d="M21.23 58.52h-8.06c-.28 0-.5-.22-.5-.5V2.45c0-.28.22-.5.5-.5h8.06c.28 0 .5.22.5.5v55.57c0 .28-.22.5-.5.5zm-7.56-1h7.06V2.95h-7.06v54.57z"></path>
  <path fill="#fff" d="M2.96 11.23h42.5v5.84H2.96z"></path>
  <path fill="#241c70" d="M45.46 17.57H2.96c-.28 0-.5-.22-.5-.5v-5.84c0-.28.22-.5.5-.5h42.5c.28 0 .5.22.5.5v5.84c0 .28-.23.5-.5.5zm-42-1h41.5v-4.84H3.46v4.84z"></path>
  <path fill="#f8c257" d="M20.88 7.23h-9.27c-.86 0-1.56.7-1.56 1.56v9.68c0 .86.7 1.56 1.56 1.56h11.17c.86 0 1.56-.7 1.56-1.56v-7.63c0-.4-.15-.78-.42-1.07l-1.91-2.04c-.28-.32-.69-.5-1.13-.5z"></path>
  <path d="M24.36 18.22v.25c0 .86-.7 1.56-1.57 1.56H11.62c-.86 0-1.56-.7-1.56-1.56V8.79c0-.86.7-1.56 1.56-1.56h.76v9.43c0 .86.7 1.56 1.56 1.56h10.42z" opacity=".08"></path>
  <path fill="#241c70" d="M22.79 20.53H11.62c-1.14 0-2.06-.92-2.06-2.06V8.79c0-1.14.92-2.06 2.06-2.06h9.27c.57 0 1.12.24 1.51.65l1.91 2.04c.36.38.56.88.56 1.41v7.63c-.02 1.14-.94 2.07-2.08 2.07zM11.62 7.73c-.58 0-1.06.48-1.06 1.06v9.67c0 .59.48 1.06 1.06 1.06h11.17c.59 0 1.06-.48 1.06-1.06v-7.63c0-.27-.1-.53-.29-.72l-1.91-2.04c-.2-.21-.48-.34-.78-.34h-9.25z"></path>
  <path fill="#fff" d="M37.49 17.07v1.99c0 .32-.26.59-.59.59h-4.69c-.32 0-.59-.26-.59-.59v-1.99h5.87z"></path>
  <path fill="#241c70" d="M36.9 20.15h-4.69c-.6 0-1.09-.49-1.09-1.09v-1.99c0-.28.22-.5.5-.5h5.87c.28 0 .5.22.5.5v1.99c0 .61-.49 1.09-1.09 1.09zm-4.78-2.58v1.49c0 .05.04.09.09.09h4.69c.05 0 .09-.04.09-.09v-1.49h-4.87z"></path>
  <path fill="#241c70" d="M34.55 22.45c-.28 0-.5-.22-.5-.5v-2.3c0-.28.22-.5.5-.5s.5.22.5.5v2.3c0 .28-.22.5-.5.5z"></path>
  <path fill="#241c70" d="M34.55 25.73c-1.18 0-2.14-.96-2.14-2.14 0-1.18.96-2.14 2.14-2.14.28 0 .5.22.5.5s-.22.5-.5.5a1.14 1.14 0 1 0 1.14 1.14c0-.28.22-.5.5-.5s.5.22.5.5c0 1.18-.96 2.14-2.14 2.14zm-5.14 38.32H4.55c-.28 0-.5-.22-.5-.5s.22-.5.5-.5h24.86c.28 0 .5.22.5.5s-.23.5-.5.5zm33.63 0h-28.4c-.28 0-.5-.22-.5-.5s.22-.5.5-.5h28.4c.28 0 .5.22.5.5s-.22.5-.5.5z"></path>
  <path fill="#fff" d="M19.44 13.63c0 1.24-1.01 2.24-2.24 2.24-1.24 0-2.24-1-2.24-2.24 0-1.24 1-2.24 2.24-2.24 1.23 0 2.24 1 2.24 2.24zM13.17 20.03l8.06 7.6"></path>
  <path fill="#241c70" d="M21.23 28.13c-.12 0-.25-.04-.34-.14l-8.06-7.6a.504.504 0 0 1-.02-.71c.19-.2.51-.21.71-.02l8.06 7.6a.504.504 0 0 1-.35.87z"></path>
  <path fill="#fff" d="m21.23 20.03-8.06 7.6"></path>
  <path fill="#241c70" d="M13.17 28.13c-.13 0-.27-.05-.36-.16-.19-.2-.18-.52.02-.71l8.06-7.6c.2-.19.52-.18.71.02.19.2.18.52-.02.71l-8.06 7.6c-.1.09-.22.14-.35.14z"></path>
  <path fill="#fff" d="m13.17 27.63 8.06 7.6"></path>
  <path fill="#241c70" d="M21.23 35.73c-.12 0-.25-.04-.34-.14l-8.06-7.6c-.2-.19-.21-.51-.02-.71s.51-.21.71-.02l8.06 7.6a.504.504 0 0 1-.35.87z"></path>
  <path fill="#fff" d="m21.23 27.63-8.06 7.6"></path>
  <path fill="#241c70" d="M13.17 35.73c-.13 0-.27-.05-.36-.16-.19-.2-.18-.52.02-.71l8.06-7.6c.2-.19.52-.18.71.02.19.2.18.52-.02.71l-8.06 7.6c-.1.09-.22.14-.35.14z"></path>
  <path fill="#fff" d="m13.17 35.23 8.06 7.6"></path>
  <path fill="#241c70" d="M21.23 43.33c-.12 0-.25-.04-.34-.14l-8.06-7.6c-.2-.19-.21-.51-.02-.71s.51-.21.71-.02l8.06 7.6a.504.504 0 0 1-.35.87z"></path>
  <path fill="#fff" d="m21.23 35.23-8.06 7.6"></path>
  <path fill="#241c70" d="M13.17 43.33c-.13 0-.27-.05-.36-.16-.19-.2-.18-.52.02-.71l8.06-7.6c.2-.19.52-.18.71.02.19.2.18.52-.02.71l-8.06 7.6c-.1.09-.22.14-.35.14z"></path>
  <path fill="#fff" d="m13.17 42.83 8.06 7.59"></path>
  <path fill="#241c70" d="M21.23 50.92c-.12 0-.25-.04-.34-.14l-8.06-7.6a.504.504 0 0 1-.02-.71c.19-.2.51-.21.71-.02l8.06 7.6a.504.504 0 0 1-.35.87z"></path>
  <path fill="#fff" d="m21.23 42.83-8.06 7.59"></path>
  <path fill="#241c70" d="M13.17 50.92c-.13 0-.27-.05-.36-.16-.19-.2-.18-.52.02-.71l8.06-7.6c.2-.19.52-.18.71.02.19.2.18.52-.02.71l-8.06 7.6c-.1.1-.22.14-.35.14z"></path>
  <path fill="#fff" d="m13.17 50.42 8.06 7.6"></path>
  <path fill="#241c70" d="M21.23 58.52c-.12 0-.25-.04-.34-.14l-8.06-7.6c-.2-.19-.21-.51-.02-.71s.51-.21.71-.02l8.06 7.6a.504.504 0 0 1-.35.87z"></path>
  <path fill="#fff" d="m21.23 50.42-8.06 7.6"></path>
  <path fill="#241c70" d="M13.17 58.52c-.13 0-.27-.05-.36-.16-.19-.2-.18-.52.02-.71l8.06-7.6c.2-.19.52-.18.71.02.19.2.18.52-.02.71l-8.06 7.6c-.1.1-.22.14-.35.14z"></path>
  <path fill="#f8c257" d="M25.57 63.55v-3.56c0-1.09-.88-1.97-1.97-1.97H10.8c-1.09 0-1.97.88-1.97 1.97v3.56h16.74z"></path>
  <path d="M25.57 59.99v3.56H8.84v-2.24h14.44v-3.29h.33c1.08 0 1.96.88 1.96 1.97z" opacity=".08"></path>
  <path fill="#241c70" d="M25.57 64.05H8.84c-.28 0-.5-.22-.5-.5v-3.56c0-1.36 1.11-2.47 2.47-2.47h12.8c1.36 0 2.47 1.11 2.47 2.47v3.56a.51.51 0 0 1-.51.5zm-16.23-1h15.73v-3.06c0-.81-.66-1.47-1.47-1.47H10.8c-.81 0-1.47.66-1.47 1.47v3.06z"></path>
  <path fill="#f8c257" d="m2.96 11.23 7.09 5.84"></path>
  <path fill="#241c70" d="M10.05 17.57c-.11 0-.22-.04-.32-.11l-7.1-5.84a.503.503 0 0 1-.07-.7c.18-.21.49-.24.7-.07l7.1 5.84c.21.17.24.49.07.7-.09.12-.23.18-.38.18z"></path>
  <path fill="#f8c257" d="m10.05 11.23-7.09 5.84"></path>
  <path fill="#241c70" d="M2.96 17.57c-.14 0-.29-.06-.39-.18a.486.486 0 0 1 .07-.7l7.1-5.84c.21-.18.53-.15.7.07.18.21.15.53-.07.7l-7.1 5.84c-.09.08-.2.11-.31.11z"></path>
  <path fill="#f8c257" d="m24.35 11.23 7.1 5.84"></path>
  <path fill="#241c70" d="M31.45 17.57c-.11 0-.22-.04-.32-.11l-7.1-5.84a.503.503 0 0 1-.07-.7c.18-.21.49-.24.7-.07l7.1 5.84c.21.17.24.49.07.7-.09.12-.24.18-.38.18z"></path>
  <path fill="#f8c257" d="m31.45 11.23-7.1 5.84"></path>
  <path fill="#241c70" d="M24.35 17.57c-.14 0-.29-.06-.39-.18a.486.486 0 0 1 .07-.7l7.1-5.84c.21-.18.53-.15.7.07.18.21.15.53-.07.7l-7.1 5.84c-.08.08-.2.11-.31.11z"></path>
  <path fill="#f8c257" d="m31 11.23 7.1 5.84"></path>
  <path fill="#241c70" d="M38.1 17.57c-.11 0-.22-.04-.32-.11l-7.1-5.84a.503.503 0 0 1-.07-.7c.18-.21.49-.24.7-.07l7.1 5.84c.21.17.24.49.07.7-.09.12-.24.18-.38.18z"></path>
  <path fill="#f8c257" d="M38.1 11.23 31 17.07"></path>
  <path fill="#241c70" d="M31 17.57c-.14 0-.29-.06-.39-.18a.486.486 0 0 1 .07-.7l7.1-5.84c.21-.18.53-.15.7.07.18.21.15.53-.07.7l-7.1 5.84c-.08.08-.2.11-.31.11z"></path>
  <path fill="#f8c257" d="m37.65 11.23 7.1 5.84"></path>
  <path fill="#241c70" d="M44.75 17.57c-.11 0-.22-.04-.32-.11l-7.1-5.84a.503.503 0 0 1-.07-.7c.18-.21.49-.24.7-.07l7.1 5.84c.21.17.24.49.07.7-.09.12-.23.18-.38.18z"></path>
  <path fill="#f8c257" d="m44.75 11.23-7.1 5.84"></path>
  <path fill="#241c70" d="M37.65 17.57c-.14 0-.29-.06-.39-.18a.486.486 0 0 1 .07-.7l7.1-5.84c.21-.18.53-.15.7.07.18.21.15.53-.07.7l-7.1 5.84c-.08.08-.19.11-.31.11z"></path>
</svg>
